# AST/ASF file generated using VICON BodyLanguage
# -----------------------------------------------
:version 1.10
:name VICON
:units
  mass 1.0
  length 0.45
  angle deg
:documentation
   .ast/.asf automatically generated from VICON data using
   VICON BodyBuilder and BodyLanguage model FoxedUp or BRILLIANT.MOD
:root
   order TX TY TZ RX RY RZ
   axis XYZ
   position 0 0 0  
   orientation 0 0 0 
:bonedata
  begin
     id 1 
     name lhipjoint
     direction 0.78388 -0.462562 0.414208 
     length 3.01181 
     axis 0 0 0  XYZ
  end
  begin
     id 2 
     name lfemur
     direction 0.34202 -0.939693 0  
     length 6.04673  
     axis 0 0 20  XYZ
    dof rx ry rz
    limits (-160.0 20.0)
           (-70.0 70.0)
           (-60.0 70.0)
  end
  begin
     id 3 
     name ltibia
     direction 0.34202 -0.939693 0   
     length 7.211   
     axis 0 0 20   XYZ
    dof rx
    limits (-10.0 170.0)
  end
  begin
     id 4 
     name lfoot
     direction 0.121887 -0.334882 0.934344   
     length 2.13567   
     axis -90 7.62852e-016 20   XYZ
    dof rx rz
    limits (-45.0 90.0)
           (-70.0 20.0)
  end
  begin
     id 5 
     name ltoes
     direction 1.53555e-011 -4.2179e-011 1   
     length 1.05957   
     axis -90 7.62852e-016 20   XYZ
    dof rx
    limits (-90.0 20.0)
  end
  begin
     id 6 
     name rhipjoint
     direction -0.769387 -0.475875 0.426129   
     length 2.92756  
     axis 0 0 0  XYZ 
  end
  begin
     id 7 
     name rfemur
     direction -0.34202 -0.939693 0   
     length 6.35468   
     axis 0 0 -20   XYZ
    dof rx ry rz
    limits (-160.0 20.0)
           (-70.0 70.0)
           (-70.0 60.0)
  end
  begin
     id 8 
     name rtibia
     direction -0.34202 -0.939693 0   
     length 7.37886   
     axis 0 0 -20   XYZ
    dof rx
    limits (-10.0 170.0)
 end
 begin
     id 9 
     name rfoot
     direction -0.101763 -0.279592 0.954711   
     length 2.21478  
     axis -90 -7.62852e-016 -20   XYZ
    dof rx rz
    limits (-45.0 90.0)
           (-20.0 70.0)
  end
  begin
     id 10 
     name rtoes
     direction -1.53494e-011 -4.21851e-011 1   
     length 1.10506   
     axis -90 -7.62852e-016 -20   XYZ
    dof rx
    limits (-90.0 20.0)
  end
  begin
     id 11 
     name lowerback
     direction 0.00747405 0.999267 0.0375481   
     length 2.13259   
     axis 0 0 0   XYZ
    dof rx ry rz
    limits (-20.0 45.0)
           (-30.0 30.0)
           (-30.0 30.0)
  end
  begin
     id 12 
     name upperback
     direction 0.00661626 0.996177 0.0871029   
     length 2.10528   
     axis 0 0 0   XYZ
    dof rx ry rz
    limits (-20.0 45.0)
           (-30.0 30.0)
           (-30.0 30.0)
  end
  begin
     id 13 
     name thorax
     direction 0.00320659 0.997679 0.0680167   
     length 2.11338   
     axis 0 0 0   XYZ
    dof rx ry rz
    limits (-20.0 45.0)
           (-30.0 30.0)
           (-30.0 30.0)
  end
  begin
     id 14 
     name lowerneck
     direction 0.0374841 0.973033 0.227602   
     length 1.42765   
     axis 0 0 0   XYZ
    dof rx ry rz
    limits (-20.0 45.0)
           (-30.0 30.0)
           (-30.0 30.0)
  end
  begin
     id 15 
     name upperneck
     direction 0.00481585 0.989155 -0.146795   
     length 1.47593   
     axis 0 0 0   XYZ
    dof rx ry rz
    limits (-20.0 45.0)
           (-30.0 30.0)
           (-30.0 30.0)
  end
  begin
     id 16
     name head
     direction -0.00292522 0.997206 -0.0746423  
     length 1.48116  
     axis 0 0 0   XYZ
    dof rx ry rz
    limits (-20.0 45.0)
           (-30.0 30.0)
           (-30.0 30.0)
  end
  begin
     id 17 
     name lclavicle
     direction 0.951444 0.305606 0.0368784  
     length 3.01855  
     axis 0 0 0   XYZ
    dof ry rz
    limits (-20.0 10.0)
           (0.0 20.0)
  end
  begin
     id 18 
     name lhumerus
     direction 1 -4.48977e-011 2.61664e-027   
     length 5.52731   
     axis 180 -30 -90   XYZ
    dof rx ry rz
    limits (-60.0 90.0)
           (-90.0 90.0)
           (-90.0 90.0)
  end
  begin
     id 19
     name lradius
     direction 1 -4.48944e-011 8.22157e-027   
     length 3.11059   
     axis 180 -30 -90   XYZ
    dof rx
    limits (-10.0 170.0)
  end
  begin
     id 20
     name lwrist
     direction 1 -4.48976e-011 1.5779e-026   
     length 1.5553   
     axis -1.15221e-014 90 90   XYZ
    dof ry
    limits (-180.0 0.0)
 end
  begin
     id 21 
     name lhand
     direction 1 -4.49025e-011 3.1558e-026   
     length 0.419626   
     axis -2.01367e-014 90 90   XYZ
    dof rx rz
    limits (-90.0 90.0)
           (-45.0 45.0)
  end
  begin
     id 22 
     name lfingers
     direction 1 -4.4904e-011 6.31161e-026   
     length 0.338313   
     axis -4.02734e-014 90 90   XYZ
    dof rx
    limits (0.0 90.0)
  end
  begin
     id 23
     name lthumb
     direction 0.707107 -6.35004e-011 0.707107   
     length 0.485752   
     axis -90 45 2.85299e-015   XYZ
    dof rx rz
    limits (-45.0 45.0)
           (-45.0 45.0)
  end
  begin
     id 24 
     name rclavicle
     direction -0.968876 0.223791 0.105816   
     length 3.04177  
     axis 0 0 0   XYZ 
    dof ry rz
    limits (-10.0 20.0)
           (-20.0 0.0)
  end
  begin
     id 25 
     name rhumerus
     direction -1 -4.48962e-011 -1.01384e-027  
     length 5.25396   
     axis 180 30 90   XYZ
    dof rx ry rz
    limits (-90.0 60.0)
           (-90.0 90.0)
           (-90.0 90.0)
  end
  begin
     id 26 
     name rradius
     direction -1 -4.48955e-011 8.88542e-027   
     length 3.10567   
     axis 180 30 90   XYZ
    dof rx
    limits (-10.0 170.0)
  end
  begin
     id 27 
     name rwrist
     direction -1 -4.48994e-011 1.5779e-026   
     length 1.55283   
     axis -1.15221e-014 -90 -90   XYZ
    dof ry
    limits (-180.0 0.0)
  end
  begin
     id 28
     name rhand
     direction -1 -4.48891e-011 3.1558e-026   
     length 0.498676   
     axis -2.01367e-014 -90 -90   XYZ
    dof rx rz
    limits (-90.0 90.0)
           (-45.0 45.0)
  end
  begin
     id 29
     name rfingers
     direction -1 -4.48972e-011 6.31161e-026   
     length 0.402045   
     axis -4.02734e-014 -90 -90   XYZ
    dof rx
    limits (0.0 90.0)
  end
  begin
     id 30
     name rthumb
     direction -0.707107 -6.34849e-011 0.707107   
     length 0.577259   
     axis -90 -45 -2.85299e-015   XYZ
    dof rx rz
    limits (-45.0 45.0)
           (-45.0 45.0)
  end
:hierarchy
  begin
    root lhipjoint rhipjoint lowerback
    lhipjoint lfemur
    lfemur ltibia
    ltibia lfoot
    lfoot ltoes
    rhipjoint rfemur
    rfemur rtibia
    rtibia rfoot
    rfoot rtoes
    lowerback upperback
    upperback thorax
    thorax lowerneck lclavicle rclavicle
    lowerneck upperneck
    upperneck head
    lclavicle lhumerus
    lhumerus lradius
    lradius lwrist
    lwrist lhand lthumb
    lhand lfingers
    rclavicle rhumerus
    rhumerus rradius
    rradius rwrist
    rwrist rhand rthumb
    rhand rfingers
  end

#!OML:ASF H:\Pregnant\Project 1\Capture day 1\Session 1\femalepreg.ASF
:FULLY-SPECIFIED
:DEGREES
27
root -5.56293 15.1636 32.3114 -157.79 -3.89798 177.594
lowerback -11.5046 -0.415838 -9.29478
upperback -4.13343 -0.52356 -7.16885
thorax 2.02671 -0.765259 -2.38956
lowerneck -17.8234 2.44393 5.67648
upperneck 20.3279 -0.0164671 4.92566
head 9.41993 0.759011 0.726724
rclavicle -1.39149e-014 -5.40694e-014
rhumerus -45.6682 4.15187 -89.8796
rradius 35.4341
rwrist -6.72247
rhand -10.3962 -17.6795
rfingers 7.12502
rthumb 15.6021 -47.0703
lclavicle -1.39149e-014 -5.40694e-014
lhumerus -28.8715 -2.63117 69.9377
lradius 27.9045
lwrist 30.4022
lhand -24.4167 -3.22742
lfingers 7.12502
lthumb 2.07492 26.7422
rfemur -60.3048 5.40815 22.4559
rtibia 74.1352
rfoot -9.21784 -6.29358
rtoes -14.3737
lfemur -32.0553 -6.38098 -23.596
ltibia 32.189
lfoot -21.4708 2.09573
ltoes -15.3766
28
root -5.59511 15.1696 32.1941 -157.655 -4.14799 177.774
lowerback -11.5866 -0.458585 -9.15588
upperback -4.27766 -0.577533 -6.90876
thorax 1.92611 -0.773812 -2.19541
lowerneck -17.9161 2.3757 5.72623
upperneck 20.4072 -0.0752962 4.70913
head 9.46318 0.719033 0.638145
rclavicle 3.73715e-014 5.40694e-014
rhumerus -45.6046 4.29973 -89.5801
rradius 35.4899
rwrist -6.46408
rhand -10.0154 -17.7105
rfingers 7.12502
rthumb 15.9688 -47.0722
lclavicle 3.73715e-014 5.40694e-014
lhumerus -28.4746 -2.70486 71.1765
lradius 28.5184
lwrist 31.0446
lhand -24.4565 -3.39402
lfingers 7.12502
lthumb 2.03647 26.576
rfemur -60.9327 5.48045 22.5865
rtibia 72.6724
rfoot -9.59993 -6.05028
rtoes -14.9064
lfemur -31.6284 -6.58745 -23.4551
ltibia 31.9564
lfoot -21.5799 2.21775
ltoes -15.6413
29
root -5.62741 15.1766 32.0757 -157.514 -4.40741 177.957
lowerback -11.6752 -0.50509 -9.00938
upperback -4.42524 -0.635541 -6.62314
thorax 1.82644 -0.783526 -1.97968
lowerneck -18.0215 2.31501 5.76637
upperneck 20.4876 -0.116345 4.47718
head 9.50877 0.685573 0.548164
rclavicle -1.55052e-014 -6.67916e-014
rhumerus -45.5322 4.45505 -89.244
rradius 35.5903
rwrist -6.30867
rhand -9.6085 -17.8161
rfingers 7.12502
rthumb 16.3606 -47.1461
lclavicle -1.55052e-014 -6.67916e-014
lhumerus -28.0997 -2.76906 72.4405
lradius 29.1232
lwrist 31.643
lhand -24.5458 -3.54028
lfingers 7.12502
lthumb 1.95027 26.4305
rfemur -61.4936 5.57618 22.6765
rtibia 71.0733
rfoot -9.92318 -5.86506
rtoes -15.4506
lfemur -31.1822 -6.7804 -23.3087
ltibia 31.6777
lfoot -21.6714 2.30892
ltoes -15.886
30
root -5.65933 15.1848 31.9561 -157.359 -4.67726 178.141
lowerback -11.777 -0.551294 -8.85376
upperback -4.57283 -0.692409 -6.32257
thorax 1.73453 -0.792839 -1.75413
lowerneck -18.1654 2.25872 5.80373
upperneck 20.5802 -0.150097 4.23402
head 9.56554 0.655258 0.456038
rclavicle -3.57812e-015 1.06549e-013
rhumerus -45.4389 4.59173 -88.8762
rradius 35.7113
rwrist -6.21579
rhand -9.21991 -17.9302
rfingers 7.12502
rthumb 16.7347 -47.2289
lclavicle -3.57812e-015 1.06549e-013
lhumerus -27.7339 -2.84289 73.7178
lradius 29.7299
lwrist 32.1802
lhand -24.6553 -3.63602
lfingers 7.12502
lthumb 1.84443 26.3357
rfemur -61.9995 5.69477 22.7214
rtibia 69.3527
rfoot -10.1843 -5.74127
rtoes -15.9656
lfemur -30.726 -6.95072 -23.1582
ltibia 31.3513
lfoot -21.744 2.3504
ltoes -16.1083
31
root -5.69061 15.1943 31.8354 -157.194 -4.95473 178.318
lowerback -11.8881 -0.594329 -8.69334
upperback -4.7198 -0.745592 -6.01513
thorax 1.64857 -0.80106 -1.52453
lowerneck -18.3159 2.20447 5.83294
upperneck 20.661 -0.177861 3.99389
head 9.6193 0.627269 0.366823
rclavicle 6.36111e-015 4.77083e-014
rhumerus -45.3326 4.6943 -88.4824
rradius 35.8677
rwrist -6.18951
rhand -8.8428 -18.1109
rfingers 7.12502
rthumb 17.0978 -47.3786
lclavicle 6.36111e-015 4.77083e-014
lhumerus -27.3723 -2.95107 74.9997
lradius 30.325
lwrist 32.654
lhand -24.7648 -3.69723
lfingers 7.12502
lthumb 1.73869 26.2754
rfemur -62.4446 5.83712 22.7127
rtibia 67.5282
rfoot -10.3872 -5.67581
rtoes -16.4038
lfemur -30.2484 -7.10029 -23.0092
ltibia 30.9713
lfoot -21.7875 2.34374
ltoes -16.3713
32
root -5.72106 15.2045 31.7137 -157.024 -5.24083 178.485
lowerback -11.9876 -0.640616 -8.54173
upperback -4.89504 -0.811083 -5.69142
thorax 1.52705 -0.815616 -1.27445
lowerneck -18.4234 2.15209 5.8766
upperneck 20.7536 -0.195616 3.71508
head 9.66916 0.599671 0.262434
rclavicle -1.78906e-014 -8.74653e-014
rhumerus -45.2604 4.79069 -88.0655
rradius 36.0437
rwrist -6.20247
rhand -8.50272 -18.3215
rfingers 7.12502
rthumb 17.4251 -47.5605
lclavicle -1.78906e-014 -8.74653e-014
lhumerus -27.0915 -3.07965 76.2887
lradius 30.9339
lwrist 33.0496
lhand -24.876 -3.72199
lfingers 7.12502
lthumb 1.6313 26.2515
rfemur -62.8342 6.00135 22.6457
rtibia 65.625
rfoot -10.5289 -5.66643
rtoes -16.7736
lfemur -29.7464 -7.23524 -22.8658
ltibia 30.5347
lfoot -21.7972 2.29767
ltoes -16.7191
33
root -5.75088 15.2157 31.5907 -156.867 -5.52988 178.647
lowerback -12.083 -0.677873 -8.37439
upperback -5.06464 -0.86723 -5.36913
thorax 1.40917 -0.826467 -1.03407
lowerneck -18.5372 2.10096 5.9046
upperneck 20.8428 -0.213299 3.45948
head 9.71906 0.573007 0.168416
rclavicle 8.54774e-015 -3.49861e-014
rhumerus -45.1738 4.83753 -87.6334
rradius 36.2305
rwrist -6.23331
rhand -8.2176 -18.5088
rfingers 7.12502
rthumb 17.6995 -47.7232
lclavicle 8.54774e-015 -3.49861e-014
lhumerus -26.8227 -3.24247 77.5612
lradius 31.5404
lwrist 33.3484
lhand -24.9116 -3.83577
lfingers 7.12502
lthumb 1.59692 26.138
rfemur -63.1454 6.18763 22.5316
rtibia 63.6621
rfoot -10.6539 -5.70423
rtoes -17.027
lfemur -29.194 -7.35821 -22.7222
ltibia 30.0374
lfoot -21.7755 2.22098
ltoes -17.1403
